<svg width="58" height="58" viewBox="0 0 58 58" fill="none" xmlns="http://www.w3.org/2000/svg">
<path d="M35.8086 7.58453C34.5199 7.30087 33.1949 8.10925 32.8478 9.39159C32.4998 10.6739 33.2629 11.9436 34.5489 12.2282C35.8357 12.5118 37.1607 11.7043 37.5096 10.4229C37.8549 9.13965 37.0945 7.87 35.8086 7.58453Z" fill="#333333"/>
<path d="M49.2193 12.6748C49.6163 12.7612 50.0165 12.8047 50.4201 12.8053C51.6879 12.8039 52.92 12.3859 53.9269 11.6157C54.9338 10.8454 55.6596 9.76554 55.9927 8.54232C56.3823 7.10229 56.1839 5.62057 55.4335 4.37176C55.0637 3.75554 54.5711 3.22199 53.9863 2.80431C53.4015 2.38664 52.737 2.09376 52.0342 1.94392C51.6406 1.85579 51.2385 1.81171 50.8352 1.81251C49.5676 1.81409 48.3357 2.23217 47.3289 3.00244C46.3222 3.7727 45.5965 4.85244 45.2636 6.07551C45.1693 6.42985 45.0814 7.1902 45.0778 7.28717C44.9047 10.7998 44.4307 12.4483 44.1561 13.1279C44.0585 13.1198 43.9605 13.1155 43.8625 13.1153C43.4592 13.1153 43.0895 13.2023 42.7578 13.3572L42.7107 13.3001C42.7016 13.2893 41.5117 11.7804 40.4024 8.14901L40.3943 8.12273L40.3852 8.09917C40.3825 8.09192 40.0988 7.3642 39.9031 7.03795C38.9397 5.43298 37.2188 4.47598 35.2993 4.47598C34.2421 4.47844 33.206 4.77259 32.3051 5.32604C32.2471 5.36229 32.1936 5.40307 32.1356 5.44114C31.9498 4.94632 30.6149 2.31548 23.2553 2.31548C10.6892 2.31548 3.82619 10.4328 3.82619 21.1229V47.57C3.95397 47.434 4.089 47.3081 4.23128 47.1839C2.35353 48.826 1.8125 51.5747 1.8125 56.1875H44.7017C44.7017 48.6239 43.2363 46.0701 36.8101 45.2065C45.5083 41.5407 53.0972 34.6677 55.2957 22.0781C55.2957 22.0781 53.0627 23.3278 50.286 23.6495L50.2633 23.5942C49.8075 22.4451 49.435 21.6549 48.9638 20.6553C48.6511 19.9946 48.3004 19.2479 47.8554 18.2528L47.4032 17.236L48.1028 14.6495L48.1364 14.5272L48.1346 14.3976C48.121 13.6726 48.1445 12.915 48.1917 12.335C48.5191 12.4806 48.8617 12.5939 49.2193 12.6748ZM43.8036 55.2903H2.71059C2.83566 47.4277 4.76144 46.0556 14.7447 45.7394L15.6083 45.7131V42.3889C18.2591 44.4597 21.0177 45.6596 23.2272 45.6596C25.4285 45.6596 28.2578 44.3972 30.9049 42.2911V45.7122L31.7686 45.7384C41.7537 46.0556 43.6785 47.4295 43.8036 55.2903ZM39.5569 27.9007C38.8029 30.2126 36.9741 30.6793 36.9741 30.6793C36.9551 33.9681 34.674 37.6021 31.7632 40.3562C29.0254 42.9454 25.7357 44.7615 23.2263 44.7615C20.7441 44.7615 17.448 42.9789 14.7003 40.4387C11.7251 37.6755 9.367 33.9944 9.367 30.6784C9.367 30.6784 6.57122 29.9489 6.57122 25.7167C6.57122 22.3663 8.67916 21.7926 8.67916 21.7926C16.2382 21.7926 28.5541 11.7541 28.5541 11.7541C28.5541 11.7541 33.2104 20.6154 37.7036 21.7926C37.7036 21.7926 39.3467 22.1044 39.7753 24.4969C39.6013 25.7892 39.5071 26.9292 39.5569 27.9007ZM38.9397 12.3957C38.5436 12.9836 38.0256 13.4794 37.4209 13.8493C36.6594 14.3181 35.783 14.5671 34.8888 14.5689C33.3491 14.5689 31.8764 13.8176 31.0527 12.441C29.7667 10.2977 30.5379 7.45664 32.7682 6.09364C33.5298 5.62498 34.406 5.37567 35.3003 5.37317C36.84 5.37317 38.3153 6.12535 39.14 7.50104C39.2787 7.73485 39.5361 8.37195 39.5506 8.41364C40.7405 12.3096 42.0237 13.872 42.0237 13.872C41.0051 14.8906 41.0685 16.2754 40.9688 16.9405L40.1741 15.6165C40.1741 15.6174 39.4473 12.741 38.9397 12.3957ZM49.3507 23.7166C48.1926 23.7537 46.9809 23.5942 45.8164 23.1076L47.0434 18.6198C48.0983 20.9933 48.6448 21.9693 49.3507 23.7166ZM47.5836 10.9203C47.1912 11.4224 47.2437 14.413 47.2437 14.413L42.8239 30.7409C38.6452 30.6775 41.0169 23.9667 41.9693 16.1186C42.1134 14.9078 42.7306 14.0134 43.8625 14.0134C44.0945 14.0127 44.3486 14.052 44.6247 14.1312C44.6247 14.1312 45.6868 13.0564 45.9677 7.32251C45.9695 7.2781 46.052 6.58301 46.1236 6.31204C46.7045 4.16967 48.6973 2.7097 50.8343 2.7097C51.1702 2.70909 51.5067 2.74595 51.8438 2.82026C54.3315 3.36945 55.8042 5.82448 55.1326 8.30488C54.5526 10.4482 52.5598 11.9072 50.4201 11.9072C49.3893 11.9139 48.3876 11.5654 47.5836 10.9203Z" fill="#333333"/>
<path d="M50.5223 9.68701C51.0758 9.68347 51.6131 9.49969 52.0528 9.16349C52.4925 8.82729 52.8107 8.35698 52.9592 7.82376C53.3054 6.54232 52.5442 5.27176 51.2582 4.98629C51.0874 4.94872 50.913 4.92958 50.738 4.9292C50.1839 4.9322 49.646 5.11585 49.2057 5.45227C48.7654 5.78869 48.4469 6.25953 48.2984 6.79336C47.9504 8.0757 48.7135 9.34626 49.9994 9.62992C50.1746 9.66798 50.349 9.68701 50.5223 9.68701ZM49.2998 8.12192C49.203 7.95932 49.1406 7.77863 49.1163 7.59098C49.092 7.40333 49.1063 7.21269 49.1584 7.03079C49.2566 6.6866 49.4635 6.3834 49.7482 6.16649C50.0329 5.94957 50.3801 5.83058 50.738 5.82729C50.8492 5.82729 50.9592 5.83938 51.0679 5.86354C51.4467 5.94782 51.763 6.17167 51.9569 6.49429C52.1509 6.81692 52.2016 7.20661 52.0983 7.58904C52.0001 7.93232 51.7935 8.23461 51.5092 8.45072C51.225 8.66683 50.8785 8.78515 50.5214 8.78801C50.4097 8.78801 50.2994 8.77623 50.1907 8.75267C50.0066 8.7148 49.8325 8.6392 49.6791 8.53063C49.5258 8.42207 49.3967 8.28291 49.2998 8.12192ZM44.291 15.7525C43.9678 15.6851 43.631 15.7432 43.349 15.915C43.0671 16.0869 42.8611 16.3596 42.773 16.6778C42.7292 16.8306 42.7173 16.9908 42.738 17.1484C42.7587 17.3059 42.8116 17.4576 42.8933 17.5939C42.9751 17.7302 43.084 17.8482 43.2133 17.9407C43.3425 18.0332 43.4894 18.0981 43.6448 18.1314C44.3037 18.2783 44.9824 17.8623 45.1637 17.2053C45.2073 17.0525 45.2191 16.8923 45.1982 16.7348C45.1774 16.5773 45.1244 16.4257 45.0426 16.2895C44.9608 16.1533 44.8518 16.0353 44.7225 15.943C44.5932 15.8506 44.4464 15.7858 44.291 15.7525ZM23.2261 34.6805C26.1016 34.6787 27.5398 32.6025 26.1016 32.6025H20.3506C18.9123 32.6025 20.3506 34.6805 23.2261 34.6805ZM26.6662 27.2936C27.2136 25.8899 27.8616 24.941 28.5703 24.3039C28.4516 24.6315 28.3894 24.9769 28.3863 25.3253C28.3863 27.0471 29.7738 28.4437 31.4811 28.4437C33.1921 28.4437 34.5778 27.0471 34.5778 25.3253C34.5778 24.5414 34.2805 23.8345 33.8057 23.2862C34.334 23.3641 34.8551 23.4529 35.3626 23.52C35.7958 23.646 36.2244 23.7819 36.6368 23.9414C36.7093 24.1906 36.7066 24.5486 36.6304 24.8957C36.5407 25.3225 36.3948 25.7594 36.2199 26.1862C36.0378 26.6094 35.842 27.0345 35.6082 27.4414C35.495 27.6466 35.3719 27.8462 35.2393 28.0395C35.1034 28.2253 34.9774 28.4364 34.7681 28.5506C35.2348 28.3911 35.5574 27.986 35.8837 27.6371C36.1982 27.2655 36.4882 26.874 36.7365 26.449C36.9857 26.0258 37.215 25.5854 37.3654 25.0896C37.4896 24.6438 37.6273 24.1299 37.4388 23.5499C38.0306 23.4511 38.5753 23.2191 39.0465 22.7733C35.9526 24.1272 28.2141 17.797 26.6662 27.2936ZM18.0668 25.3253C18.0668 24.9646 17.9934 24.6247 17.8828 24.3039C18.5906 24.941 19.2386 25.8899 19.7869 27.2936C18.239 17.797 10.5005 24.1272 7.40479 22.7733C7.87694 23.2191 8.42069 23.4511 9.01157 23.5499C8.82397 24.1308 8.96172 24.6438 9.08497 25.0896C9.23541 25.5854 9.4656 26.0258 9.71391 26.449C9.96313 26.874 10.254 27.2646 10.5667 27.6371C10.8929 27.986 11.2174 28.3911 11.6823 28.5506C11.4738 28.4355 11.3488 28.2253 11.211 28.0395C11.0788 27.8462 10.956 27.6466 10.8431 27.4414C10.6146 27.0354 10.4103 26.6163 10.2314 26.1862C10.0562 25.7691 9.91847 25.3372 9.81994 24.8957C9.74472 24.5486 9.742 24.1915 9.8136 23.9414C10.2232 23.7837 10.6473 23.646 11.0769 23.5218C11.5871 23.4548 12.1137 23.3641 12.6447 23.2862C12.1499 23.8505 11.876 24.5748 11.8735 25.3253C11.8735 27.0471 13.2592 28.4437 14.9693 28.4437C16.6784 28.4446 18.0668 27.048 18.0668 25.3253ZM25.9403 36.8374C23.9139 36.0652 23.227 37.2923 23.227 37.2923C23.227 37.2923 22.5383 36.0652 20.5128 36.8374C18.9287 37.4409 16.3377 37.083 16.3468 37.0866C20.4747 42.9953 25.9775 42.9953 30.1045 37.0866C30.1136 37.0839 27.5235 37.4409 25.9403 36.8374Z" fill="#333333"/>
</svg>
