<svg width="58" height="58" viewBox="0 0 58 58" fill="none" xmlns="http://www.w3.org/2000/svg">
<path d="M29 12.6875C32.5036 12.6875 35.3438 9.84731 35.3438 6.34375C35.3438 2.84019 32.5036 0 29 0C25.4964 0 22.6562 2.84019 22.6562 6.34375C22.6562 9.84731 25.4964 12.6875 29 12.6875Z" fill="#333333"/>
<path d="M34.4375 14.5H23.5625C21.6414 14.5057 19.8007 15.2713 18.4422 16.6297C17.0838 17.9882 16.3182 19.8289 16.3125 21.75V33.93C16.3125 35.1591 17.2675 36.2047 18.4954 36.2489C18.7997 36.26 19.1032 36.2096 19.3876 36.1008C19.672 35.992 19.9316 35.827 20.1508 35.6156C20.37 35.4043 20.5443 35.1509 20.6634 34.8706C20.7825 34.5903 20.8438 34.2889 20.8438 33.9844V22.6868C20.8409 22.453 20.9265 22.2268 21.0834 22.0535C21.2404 21.8801 21.457 21.7725 21.69 21.7523C21.8139 21.744 21.9383 21.7614 22.0552 21.8032C22.1722 21.8451 22.2793 21.9105 22.37 21.9955C22.4606 22.0805 22.5327 22.1832 22.582 22.2973C22.6312 22.4113 22.6565 22.5343 22.6562 22.6585V55.3945C22.6562 56.0855 22.9308 56.7483 23.4194 57.2369C23.908 57.7255 24.5707 58 25.2617 58C25.9527 58 26.6154 57.7255 27.1041 57.2369C27.5927 56.7483 27.8672 56.0855 27.8672 55.3945V39.2338C27.8632 38.9413 27.9699 38.658 28.1659 38.4408C28.3618 38.2236 28.6327 38.0885 28.9241 38.0625C29.0791 38.0521 29.2346 38.0737 29.381 38.1259C29.5273 38.1782 29.6613 38.26 29.7746 38.3662C29.888 38.4725 29.9783 38.6009 30.0399 38.7435C30.1015 38.8862 30.1332 39.0399 30.1328 39.1953V55.3945C30.1328 56.0855 30.4073 56.7483 30.8959 57.2369C31.3846 57.7255 32.0473 58 32.7383 58C33.4293 58 34.092 57.7255 34.5806 57.2369C35.0692 56.7483 35.3438 56.0855 35.3438 55.3945V22.6868C35.3409 22.453 35.4265 22.2268 35.5834 22.0535C35.7404 21.8801 35.957 21.7725 36.19 21.7523C36.3139 21.744 36.4383 21.7614 36.5552 21.8032C36.6722 21.8451 36.7793 21.9105 36.87 21.9955C36.9606 22.0805 37.0327 22.1832 37.082 22.2973C37.1313 22.4113 37.1565 22.5343 37.1562 22.6585V33.9323C37.1562 35.1614 38.1112 36.207 39.3392 36.2511C39.6437 36.2623 39.9473 36.2118 40.2319 36.1029C40.5165 35.994 40.7761 35.8287 40.9954 35.6171C41.2146 35.4055 41.3889 35.1518 41.5078 34.8713C41.6267 34.5907 41.6879 34.2891 41.6875 33.9844V21.75C41.6818 19.8289 40.9162 17.9882 39.5578 16.6297C38.1993 15.2713 36.3586 14.5057 34.4375 14.5Z" fill="#333333"/>
</svg>
