<svg width="98" height="25" viewBox="0 0 98 25" fill="none" xmlns="http://www.w3.org/2000/svg">
<path fill-rule="evenodd" clip-rule="evenodd" d="M95.9287 2.861C94.2577 0.796 92.8216 1.00001 86.8406 1.00001L79.8406 1.00001L79.7777 12.2385V24L82.3087 24C84.5177 24 84.8407 23.569 84.8407 20.629C84.8407 16 84.8766 15.901 89.8406 16C93.3256 15.538 95.2267 15.287 96.3047 13.748C98.4067 10.746 98.2337 5.706 95.9287 2.861ZM88.5907 11.81C85.3406 11.5 85.3406 11.5 84.8407 8.56C85.3406 5.50001 85.3406 5.00001 88.1737 5C92.2437 5 92.8406 5.50001 92.8406 8.50001C92.8406 11 91.7617 11.548 88.5907 11.81ZM73.8406 1.43051e-05C70.8546 0.292014 70.2297 1.031 67.2197 8.5L63.9957 16.5L62.3267 12.5C57.3406 1.43051e-05 57.3406 1.43051e-05 54.3406 1.43051e-05L50.8406 0V12.5V24H53.3087C55.7807 24 55.8406 24 55.8927 16.75L55.9457 9.5L58.7797 16.5C61.8406 24 62.0216 24 63.8406 24C65.6596 24 65.8406 24 68.9017 16.5L71.7357 9.5L71.7887 16.75C71.8397 23.803 71.9087 24 74.3407 24H76.8407V11.937V1.43051e-05L73.8406 1.43051e-05ZM45.3407 0L42.8407 0V12V24L45.3407 24H47.8407V12V0L45.3407 0ZM34.8407 20H29.8407V9.934V1.85966e-05L26.8406 0L24.8406 0V12.5V24H31.8406C39.8406 24 39.8407 24 39.8407 22C39.8407 20 39.8407 20 34.8407 20ZM19.4447 5.11C17.6557 1.882 13.9526 0.543 9.34064 0.5C1.90264 0.432 -1.07139 8.399 0.340637 17C2.42861 21.399 4.88766 24.5 10.6287 24.5C14.3406 24 15.8406 23 18.3406 21C20.3406 17.5 19.8756 17.766 20.3406 13C20.3756 9.266 20.1737 6.425 19.4447 5.11ZM14.1857 18.171C12.4917 20.043 9.20466 20.546 7.24066 19.235C3.81966 16.951 3.11266 9.787 5.96866 6.345C7.50666 4.492 11.8047 4.658 14.0117 6.655C16.3667 8.786 16.4697 15.647 14.1857 18.171Z" fill="black"/>
</svg>
