<svg width="58" height="58" viewBox="0 0 58 58" fill="none" xmlns="http://www.w3.org/2000/svg">
<path d="M40.3462 7.73015H32.283C30.8261 7.73479 30.8806 9.90631 32.283 9.89355H40.3462V11.0037H32.283C30.8342 10.9909 30.8875 13.1613 32.283 13.1671H40.3462V14.3016H32.283C30.8342 14.3016 30.8875 16.4708 32.283 16.465H40.3462V17.5461H32.283C30.8643 17.5565 30.8875 19.728 32.283 19.735H40.3462V20.8184H32.283C30.8643 20.8138 30.8585 22.9818 32.283 22.9818H40.3462V24.063H32.283C30.8643 24.0676 30.8585 26.238 32.283 26.2275H40.3462V27.3353H32.283C30.8643 27.3226 30.8585 29.4906 32.283 29.4987H40.3462V30.5775H32.283C30.8643 30.5764 30.8875 32.749 32.283 32.7421H40.3462V53.8065C40.3508 57.0162 45.2263 56.9582 45.2402 53.8065V4.51231C45.2263 3.04607 44.0222 1.19239 42.0409 1.18659H32.283C30.8261 1.18775 30.8806 3.35927 32.283 3.34999L40.3462 3.37667V4.45547H32.283C30.8284 4.44851 30.8829 6.61887 32.283 6.62003H40.3462V7.73015ZM31.7285 45.0752C31.7239 41.3284 27.8402 37.2985 23.2002 39.9086V25.5779L20.1993 1.94291C20.1367 1.31767 19.6065 1.17035 19.2504 1.15991C18.8827 1.17035 18.1461 1.31767 18.0661 1.94291L15.0802 25.5779V39.9086C10.4402 37.2985 6.68182 41.3539 6.68066 45.0462C6.68182 48.3313 9.21062 51.0295 12.6326 51.0214C16.0801 51.0295 18.5602 48.0054 18.5602 45.0462V30.1599H19.7202V45.0462C19.7202 48.3591 22.2861 50.8114 25.1374 50.9668C25.0899 52.7834 25.6826 55.3748 26.7985 56.4026C28.107 57.609 29.6649 56.0662 29.0257 54.8099C28.4086 53.6406 27.8031 52.9481 28.2949 50.395C30.3505 49.4438 31.7239 47.4416 31.7285 45.0752ZM12.7649 48.0227C11.9827 48.0227 11.2325 47.712 10.6794 47.1589C10.1263 46.6058 9.81556 45.8557 9.81556 45.0734C9.81556 44.2912 10.1263 43.5411 10.6794 42.988C11.2325 42.4349 11.9827 42.1241 12.7649 42.1241C14.3726 42.1334 15.6823 43.4524 15.6939 45.0752C15.6912 45.8529 15.3823 46.5982 14.8341 47.1499C14.2859 47.7016 13.5425 48.0151 12.7649 48.0227ZM22.7072 45.0752C22.7099 44.297 23.0188 43.5511 23.5672 42.9988C24.1155 42.4466 24.8592 42.1324 25.6374 42.1241C26.4157 42.1318 27.1596 42.4458 27.7078 42.9982C28.2561 43.5506 28.5646 44.2969 28.5664 45.0752C28.5652 45.8534 28.2568 46.5996 27.7083 47.1516C27.1598 47.7035 26.4155 48.0166 25.6374 48.0227C24.8595 48.0154 24.1158 47.702 23.5674 47.1503C23.019 46.5986 22.7099 45.8531 22.7072 45.0752Z" fill="#333333"/>
</svg>
