<svg width="62" height="62" viewBox="0 0 62 62" fill="none" xmlns="http://www.w3.org/2000/svg">
<path d="M5.1665 38.7501C9.48067 36.8126 13.769 34.8751 18.0832 34.0226V12.9167C18.0832 10.8613 18.8997 8.89008 20.3531 7.43667C21.8065 5.98326 23.7777 5.16675 25.8332 5.16675C29.2173 5.16675 32.0848 7.31091 33.144 10.3334H25.8332C25.148 10.3334 24.4909 10.6056 24.0065 11.0901C23.522 11.5745 23.2498 12.2316 23.2498 12.9167V15.5001H36.1665V12.9167C36.1665 10.8613 36.983 8.89008 38.4364 7.43667C39.8898 5.98326 41.8611 5.16675 43.9165 5.16675C47.3007 5.16675 50.1682 7.31091 51.2273 10.3334H43.9165C43.2314 10.3334 42.5743 10.6056 42.0898 11.0901C41.6053 11.5745 41.3332 12.2316 41.3332 12.9167V38.5951C46.4998 37.7684 51.6665 33.5834 56.8332 33.5834V38.7501C51.0982 38.7501 45.3632 43.9167 39.6023 43.9167C33.8673 43.9167 28.1323 38.7501 22.3973 38.7501C16.6365 38.7501 10.9015 41.3334 5.1665 43.9167V38.7501ZM36.1665 20.6667H23.2498V25.8334H36.1665V20.6667ZM36.1665 31.0001H23.2498V33.5834C27.564 33.9967 31.8523 36.9676 36.1665 38.2076V31.0001ZM5.1665 49.0834C10.9015 46.5001 16.6365 43.9167 22.3973 43.9167C28.1323 43.9167 33.8673 49.0834 39.6023 49.0834C45.3632 49.0834 51.0982 43.9167 56.8332 43.9167V49.0834C51.0982 49.0834 45.3632 54.2501 39.6023 54.2501C33.8673 54.2501 28.1323 49.0834 22.3973 49.0834C16.6365 49.0834 10.9015 51.6667 5.1665 54.2501V49.0834Z" fill="#333333"/>
</svg>
