<svg width="24" height="24" viewBox="0 0 24 24" fill="none" xmlns="http://www.w3.org/2000/svg">
<g clip-path="url(#clip0_77_50)">
<mask id="mask0_77_50" style="mask-type:luminance" maskUnits="userSpaceOnUse" x="0" y="0" width="24" height="24">
<path d="M0 0H24V24H0V0Z" fill="white"/>
<path fill-rule="evenodd" clip-rule="evenodd" d="M3.69226 8.30758C3.69226 7.81795 3.88677 7.34837 4.23299 7.00215C4.57921 6.65593 5.04879 6.46143 5.53842 6.46143H18.4615C18.9511 6.46143 19.4207 6.65593 19.7669 7.00215C20.1131 7.34837 20.3076 7.81795 20.3076 8.30758V10.7445C20.3076 11.1783 20.0473 11.5697 19.6467 11.7368C19.5949 11.7585 19.5506 11.7951 19.5195 11.8419C19.4883 11.8887 19.4717 11.9437 19.4717 11.9999C19.4717 12.0561 19.4883 12.1111 19.5195 12.1579C19.5506 12.2047 19.5949 12.2412 19.6467 12.263C20.0473 12.4291 20.3076 12.8205 20.3076 13.2543V15.6922C20.3076 16.1818 20.1131 16.6514 19.7669 16.9976C19.4207 17.3438 18.9511 17.5383 18.4615 17.5383H5.53842C5.04879 17.5383 4.57921 17.3438 4.23299 16.9976C3.88677 16.6514 3.69226 16.1818 3.69226 15.6922V13.2553C3.69226 12.8214 3.95257 12.43 4.35319 12.263C4.40504 12.2412 4.44931 12.2047 4.48045 12.1579C4.51159 12.1111 4.5282 12.0561 4.5282 11.9999C4.5282 11.9437 4.51159 11.8887 4.48045 11.8419C4.44931 11.7951 4.40504 11.7585 4.35319 11.7368C4.15721 11.6556 3.98977 11.518 3.8721 11.3415C3.75443 11.165 3.69184 10.9576 3.69226 10.7454V8.30758ZM18.4615 8.30758H5.53842V10.3023C6.65349 11.1368 6.65349 12.863 5.53842 13.6974V15.6922H18.4615V13.6974C17.3464 12.862 17.3464 11.1368 18.4615 10.3023V8.30758Z" fill="black"/>
<path fill-rule="evenodd" clip-rule="evenodd" d="M14.3076 14.769C14.5524 14.769 14.7872 14.8663 14.9603 15.0394C15.1334 15.2125 15.2307 15.4473 15.2307 15.6921V16.1536C15.2307 16.3984 15.1334 16.6332 14.9603 16.8063C14.7872 16.9794 14.5524 17.0767 14.3076 17.0767C14.0628 17.0767 13.828 16.9794 13.6549 16.8063C13.4818 16.6332 13.3845 16.3984 13.3845 16.1536V15.6921C13.3845 15.4473 13.4818 15.2125 13.6549 15.0394C13.828 14.8663 14.0628 14.769 14.3076 14.769ZM14.3076 6.92285C14.5524 6.92285 14.7872 7.0201 14.9603 7.19321C15.1334 7.36633 15.2307 7.60111 15.2307 7.84593V8.30747C15.2307 8.55228 15.1334 8.78707 14.9603 8.96018C14.7872 9.13329 14.5524 9.23054 14.3076 9.23054C14.0628 9.23054 13.828 9.13329 13.6549 8.96018C13.4818 8.78707 13.3845 8.55228 13.3845 8.30747V7.84593C13.3845 7.60111 13.4818 7.36633 13.6549 7.19321C13.828 7.0201 14.0628 6.92285 14.3076 6.92285ZM14.3076 9.46131C14.5524 9.46131 14.7872 9.55857 14.9603 9.73168C15.1334 9.90479 15.2307 10.1396 15.2307 10.3844V10.8459C15.2307 11.0907 15.1334 11.3255 14.9603 11.4986C14.7872 11.6718 14.5524 11.769 14.3076 11.769C14.0628 11.769 13.828 11.6718 13.6549 11.4986C13.4818 11.3255 13.3845 11.0907 13.3845 10.8459V10.3844C13.3845 10.1396 13.4818 9.90479 13.6549 9.73168C13.828 9.55857 14.0628 9.46131 14.3076 9.46131ZM14.3076 12.2305C14.5524 12.2305 14.7872 12.3278 14.9603 12.5009C15.1334 12.674 15.2307 12.9088 15.2307 13.1536V13.6152C15.2307 13.86 15.1334 14.0948 14.9603 14.2679C14.7872 14.441 14.5524 14.5382 14.3076 14.5382C14.0628 14.5382 13.828 14.441 13.6549 14.2679C13.4818 14.0948 13.3845 13.86 13.3845 13.6152V13.1536C13.3845 12.9088 13.4818 12.674 13.6549 12.5009C13.828 12.3278 14.0628 12.2305 14.3076 12.2305Z" fill="black"/>
</mask>
<g mask="url(#mask0_77_50)">
<path d="M12 24C18.6274 24 24 18.6274 24 12C24 5.37258 18.6274 0 12 0C5.37258 0 0 5.37258 0 12C0 18.6274 5.37258 24 12 24Z" fill="#333333"/>
</g>
</g>
<defs>
<clipPath id="clip0_77_50">
<rect width="24" height="24" fill="white"/>
</clipPath>
</defs>
</svg>
