<svg width="58" height="58" viewBox="0 0 58 58" fill="none" xmlns="http://www.w3.org/2000/svg">
<path d="M4.8335 30.2084C4.8335 29.8879 4.9608 29.5806 5.18741 29.354C5.41402 29.1274 5.72136 29.0001 6.04183 29.0001H18.1252C18.4456 29.0001 18.753 29.1274 18.9796 29.354C19.2062 29.5806 19.3335 29.8879 19.3335 30.2084V43.5001C19.3335 45.4229 18.5697 47.267 17.21 48.6266C15.8504 49.9862 14.0063 50.7501 12.0835 50.7501C10.1607 50.7501 8.31661 49.9862 6.95697 48.6266C5.59733 47.267 4.8335 45.4229 4.8335 43.5001V30.2084ZM7.25016 25.3751H16.9168V14.5001C16.917 14.0881 16.8119 13.6829 16.6114 13.323C16.4109 12.9631 16.1218 12.6604 15.7714 12.4437C15.421 12.2269 15.0211 12.1034 14.6095 12.0848C14.1979 12.0661 13.7884 12.153 13.4199 12.3372L8.58658 14.7538C8.18485 14.9546 7.847 15.2633 7.61095 15.6453C7.37489 16.0274 7.24995 16.4676 7.25016 16.9167V25.3751ZM26.5835 25.3751C26.5835 21.8499 27.9839 18.4691 30.4765 15.9764C32.9692 13.4838 36.35 12.0834 39.8752 12.0834C43.4003 12.0834 46.7811 13.4838 49.2738 15.9764C51.7665 18.4691 53.1668 21.8499 53.1668 25.3751C53.1668 28.9002 51.7665 32.281 49.2738 34.7737C46.7811 37.2664 43.4003 38.6667 39.8752 38.6667C36.35 38.6667 32.9692 37.2664 30.4765 34.7737C27.9839 32.281 26.5835 28.9002 26.5835 25.3751ZM38.0627 42.7992C39.2675 42.9291 40.4828 42.9291 41.6877 42.7992V47.1251H47.1252C47.6059 47.1251 48.0669 47.316 48.4068 47.6559C48.7467 47.9958 48.9377 48.4569 48.9377 48.9376C48.9377 49.4183 48.7467 49.8793 48.4068 50.2192C48.0669 50.5591 47.6059 50.7501 47.1252 50.7501H32.6252C32.1445 50.7501 31.6834 50.5591 31.3435 50.2192C31.0036 49.8793 30.8127 49.4183 30.8127 48.9376C30.8127 48.4569 31.0036 47.9958 31.3435 47.6559C31.6834 47.316 32.1445 47.1251 32.6252 47.1251H38.0627V42.7992Z" fill="#333333"/>
</svg>
