<svg width="62" height="62" viewBox="0 0 62 62" fill="none" xmlns="http://www.w3.org/2000/svg">
<g clip-path="url(#clip0_0_342)">
<path d="M16.314 43.1333C16.314 43.5437 16.3948 43.9502 16.5519 44.3294C16.709 44.7087 16.9392 45.0532 17.2295 45.3435C17.5197 45.6337 17.8643 45.864 18.2435 46.021C18.6227 46.1781 19.0292 46.259 19.4397 46.259C19.8501 46.259 20.2566 46.1781 20.6358 46.021C21.0151 45.864 21.3596 45.6337 21.6499 45.3435C21.9401 45.0532 22.1704 44.7087 22.3274 44.3294C22.4845 43.9502 22.5654 43.5437 22.5654 43.1333C22.5654 42.3043 22.2361 41.5093 21.6499 40.9231C21.0637 40.3369 20.2687 40.0076 19.4397 40.0076C18.6107 40.0076 17.8156 40.3369 17.2295 40.9231C16.6433 41.5093 16.314 42.3043 16.314 43.1333Z" fill="black"/>
<path d="M46.5277 20.7953C46.7758 20.5983 47.4255 20.5983 48.6021 20.6213H50.7021C58.4038 20.6213 63.2177 12.2853 59.3656 5.61694C58.4879 4.09577 57.2252 2.83252 55.7044 1.95425C54.1836 1.07598 52.4583 0.613651 50.7021 0.61377H39.4475C38.784 0.61377 38.1478 0.877329 37.6786 1.34647C37.2095 1.81561 36.9459 2.45189 36.9459 3.11536C36.9459 3.77882 37.2095 4.41511 37.6786 4.88424C38.1478 5.35338 38.784 5.61694 39.4475 5.61694H50.7021C54.5542 5.61694 56.9612 9.78625 55.0351 13.1191C54.1399 14.6667 52.49 15.6207 50.7021 15.6207H48.7018C47.5543 15.4277 46.3763 15.5335 45.2814 15.9277C44.1865 16.3219 43.2116 16.9914 42.4504 17.8716C42.2995 18.0712 32.1678 37.2551 32.1678 37.2551C32.0771 37.397 31.944 37.5067 31.7873 37.5686C31.6306 37.6305 31.4585 37.6414 31.2952 37.5997C31.132 37.5581 30.9861 37.466 30.8783 37.3366C30.7704 37.2072 30.7061 37.0471 30.6945 36.8791V31.8759C30.6938 31.5444 30.5618 31.2267 30.3274 30.9922C30.093 30.7578 29.7752 30.6258 29.4437 30.6251H25.2923C24.9433 30.6243 24.5983 30.5507 24.2794 30.4088C23.9605 30.267 23.6748 30.0601 23.4404 29.8015L16.1147 21.6726C16.0487 21.5724 16.0135 21.455 16.0135 21.335C16.0135 21.215 16.0487 21.0976 16.1147 20.9974C16.1545 20.8992 16.2189 20.813 16.3018 20.7471C16.3848 20.6812 16.4833 20.6379 16.5879 20.6213H18.8133C19.5679 20.6279 20.2994 20.3612 20.8728 19.8705C21.4461 19.3797 21.8226 18.6981 21.9326 17.9515C22.0427 17.2049 21.8789 16.4437 21.4715 15.8084C21.0641 15.1732 20.4406 14.7067 19.7162 14.4953C6.73505 10.615 5.93443 10.615 5.68376 10.615C1.83418 10.615 -0.572761 14.7843 1.35331 18.1198C2.246 19.6673 3.89582 20.6188 5.68376 20.6188H7.33358C8.03955 20.6213 8.71483 20.9206 9.18547 21.445L16.2631 29.3232C16.483 29.538 16.5444 29.8706 16.414 30.1494C16.3547 30.2923 16.2536 30.4139 16.124 30.4984C15.9944 30.5828 15.8422 30.6261 15.6876 30.6226C6.06233 30.6584 0.0769353 41.0945 4.91385 49.4177C5.97025 51.232 7.46545 52.7518 9.26221 53.8377C9.42618 53.9341 9.5655 54.0674 9.66918 54.2269C9.77286 54.3863 9.83806 54.5677 9.85964 54.7567C9.88122 54.9457 9.85859 55.1372 9.79353 55.3159C9.72847 55.4947 9.62276 55.6559 9.48474 55.7868L8.90922 56.3623C8.45331 56.8365 8.20159 57.4706 8.20816 58.1283C8.21473 58.7861 8.47907 59.415 8.94437 59.88C9.40967 60.345 10.0388 60.6089 10.6966 60.615C11.3543 60.6211 11.9883 60.3689 12.4621 59.9126L15.9894 56.3623C16.4614 55.8944 17.0999 55.6331 17.7645 55.6359H42.5758C42.9509 55.6768 43.3261 55.6768 43.7012 55.6359C43.909 55.5856 44.1262 55.5893 44.3321 55.6466C44.5381 55.7039 44.7259 55.8129 44.8778 55.9633L48.9269 60.038C49.4008 60.4942 50.0347 60.7464 50.6925 60.7403C51.3502 60.7342 51.9794 60.4703 52.4447 60.0053C52.91 59.5404 53.1743 58.9114 53.1809 58.2537C53.1874 57.5959 52.9357 56.9618 52.4798 56.4877L48.4026 52.436C48.2518 52.2589 48.1532 52.0433 48.118 51.8134C48.0828 51.5834 48.1122 51.3482 48.2031 51.134C48.2832 50.764 48.325 50.3889 48.3284 50.0086C48.3344 48.685 47.8694 47.4024 47.0165 46.3902C46.1637 45.378 44.9785 44.7022 43.6731 44.4836L36.8948 42.4066C36.7181 42.3545 36.5562 42.2615 36.4221 42.1354C36.2879 42.0092 36.1852 41.8533 36.1223 41.6802C36.0431 41.5168 36.0019 41.3375 36.0019 41.1558C36.0019 40.9742 36.0431 40.7949 36.1223 40.6315L46.5277 20.7953ZM28.1929 51.9602C27.8414 52.3114 27.3648 52.5086 26.868 52.5086C26.3711 52.5086 25.8945 52.3114 25.543 51.9602L23.3176 49.7349C23.1392 49.5611 22.9129 49.4444 22.6678 49.3997C22.4227 49.3551 22.1698 49.3845 21.9415 49.4842C21.1486 49.8168 20.2994 49.9958 19.4399 50.0086C14.1094 50.157 10.6179 44.4759 13.1578 39.7848C15.6978 35.0963 22.361 34.9147 25.1542 39.4574C26.295 41.317 26.4945 43.6037 25.6913 45.6321C25.5937 45.8566 25.5655 46.1051 25.6101 46.3457C25.6548 46.5864 25.7704 46.8082 25.942 46.9826L28.1673 49.208C28.9756 49.9446 28.9859 51.2108 28.1929 51.9602Z" fill="black"/>
</g>
<defs>
<clipPath id="clip0_0_342">
<rect width="61.3886" height="61.3886" fill="white"/>
</clipPath>
</defs>
</svg>
