<svg width="33" height="20" viewBox="0 0 33 20" fill="none" xmlns="http://www.w3.org/2000/svg">
<path d="M31.674 19.9984H28.0607C26.6942 19.9984 26.2825 18.8693 23.8331 16.3688C21.6923 14.264 20.7882 14.0023 20.2467 14.0023C19.4978 14.0023 19.2935 14.2123 19.2935 15.2639V18.5785C19.2935 19.475 19.0085 20 16.7126 20C14.4852 19.8473 12.3253 19.157 10.4107 17.9859C8.49607 16.8149 6.88157 15.1965 5.70017 13.2641C2.89603 9.70174 0.944342 5.52165 0 1.05554C0 0.503104 0.20584 0.00235559 1.2382 0.00235559H4.84831C5.77617 0.00235559 6.11027 0.423954 6.47445 1.39799C8.22725 6.6607 11.2183 11.2385 12.4327 11.2385C12.8982 11.2385 13.1009 11.0285 13.1009 9.84449V4.42348C12.9473 1.95043 11.66 1.74205 11.66 0.847168C11.6763 0.611074 11.7822 0.390757 11.9551 0.233012C12.1281 0.0752675 12.3545 -0.00747654 12.5863 0.00235559H18.2611C19.037 0.00235559 19.2935 0.396493 19.2935 1.34307V8.66046C19.2935 9.45036 19.626 9.71204 19.8604 9.71204C20.3259 9.71204 20.6837 9.45035 21.5372 8.58131C23.3658 6.30478 24.8603 3.76913 25.9738 1.05393C26.0872 0.727575 26.3024 0.44817 26.5864 0.258527C26.8704 0.0688842 27.2075 -0.0205354 27.5461 0.00397079H31.1578C32.2408 0.00397079 32.4704 0.55641 32.2408 1.34469C30.9268 4.34643 29.3014 7.19595 27.3925 9.84449C27.003 10.4502 26.8478 10.7652 27.3925 11.476C27.7503 12.0284 29.017 13.1074 29.8673 14.1332C31.1055 15.3931 32.1331 16.8501 32.9106 18.4461C33.2209 19.4734 32.7047 19.9984 31.674 19.9984Z" fill="white"/>
</svg>
