<svg width="31" height="18" viewBox="0 0 31 18" fill="none" xmlns="http://www.w3.org/2000/svg">
<path d="M29.7543 17.9985H26.36C25.0764 17.9985 24.6897 16.9823 22.3886 14.7319C20.3776 12.8376 19.5283 12.6021 19.0196 12.6021C18.3161 12.6021 18.1242 12.7911 18.1242 13.7375V16.7207C18.1242 17.5275 17.8565 18 15.6997 18C13.6073 17.8626 11.5783 17.2413 9.77973 16.1874C7.98116 15.1334 6.46451 13.6768 5.35471 11.9377C2.72051 8.73157 0.887109 4.96948 0 0.949989C0 0.452794 0.193365 0.00212003 1.16316 0.00212003H4.55448C5.4261 0.00212003 5.73995 0.381559 6.08206 1.25819C7.72863 5.99463 10.5384 10.1147 11.6792 10.1147C12.1165 10.1147 12.3069 9.92567 12.3069 8.86004V3.98113C12.1626 1.75539 10.9534 1.56785 10.9534 0.762451C10.9686 0.549967 11.0681 0.351681 11.2306 0.209711C11.393 0.0677407 11.6057 -0.00672888 11.8235 0.00212003H17.1544C17.8832 0.00212003 18.1242 0.356844 18.1242 1.20876V7.79442C18.1242 8.50532 18.4366 8.74083 18.6567 8.74083C19.094 8.74083 19.4302 8.50532 20.2319 7.72318C21.9497 5.6743 23.3536 3.39222 24.3996 0.948535C24.5062 0.654818 24.7083 0.403353 24.9751 0.232674C25.2419 0.0619958 25.5586 -0.0184818 25.8766 0.00357371H29.2694C30.2868 0.00357371 30.5025 0.500769 30.2868 1.21022C29.0525 3.91178 27.5256 6.47636 25.7323 8.86004C25.3664 9.40521 25.2207 9.6887 25.7323 10.3284C26.0685 10.8256 27.2584 11.7967 28.0572 12.7198C29.2203 13.8538 30.1857 15.1651 30.916 16.6015C31.2075 17.5261 30.7226 17.9985 29.7543 17.9985Z" fill="black"/>
</svg>
